<?xml version="1.0" encoding="iso-8859-1"?>
<!-- Generator: Adobe Illustrator 19.0.0, SVG Export Plug-In . SVG Version: 6.00 Build 0)  -->
<svg version="1.1" id="Capa_1" xmlns="http://www.w3.org/2000/svg" xmlns:xlink="http://www.w3.org/1999/xlink" x="0px" y="0px"
	 viewBox="0 0 480 480" style="enable-background:new 0 0 480 480;" xml:space="preserve">
<path style="fill:#E54E35;" d="M248,200v80c0,26.4,21.6,48,48,48h144V200h-32c0-17.6-14.4-32-32-32c-7.2,0-14.4,2.4-20,6.4V168
	c-4-9.6-13.6-16-24-16h-36C269.6,152,248,173.6,248,200z"/>
<g>
	<path style="fill:#7F2B1D;" d="M328,336h-32c-31.2,0-56-24.8-56-56v-80c0-31.2,24.8-56,56-56h36c13.6,0,25.6,8,31.2,20l-14.4,7.2
		c-3.2-6.4-9.6-11.2-16.8-11.2h-36c-22.4,0-40,17.6-40,40v80c0,22.4,17.6,40,40,40h32c13.6,0,24-10.4,24-24v-32h16v32
		C368,318.4,350.4,336,328,336z"/>
	<path style="fill:#7F2B1D;" d="M288,248h-16v-48c0-13.6,10.4-24,24-24h24v16h-24c-4.8,0-8,3.2-8,8V248z"/>
</g>
<rect x="440" y="192" style="fill:#E54E35;" width="40" height="144"/>
<g>
	<rect x="440" y="192" style="fill:#7F2B1D;" width="40" height="32"/>
	<rect x="440" y="304" style="fill:#7F2B1D;" width="40" height="32"/>
</g>
<g>
	<polygon style="fill:#DFA738;" points="224,352 176,416 224,432 	"/>
	<polygon style="fill:#DFA738;" points="256,352 304,416 256,432 	"/>
	<polygon style="fill:#DFA738;" points="256,128 304,64 256,48 	"/>
	<polygon style="fill:#DFA738;" points="224,128 176,64 224,48 	"/>
</g>
<path style="fill:#7F2B1D;" d="M440,336H320v-16h112V208h-24c-4.8,0-8-3.2-8-8c0-13.6-10.4-24-24-24s-24,10.4-24,24v40
	c0,8.8,7.2,16,16,16s16-7.2,16-16h16c0,17.6-14.4,32-32,32s-32-14.4-32-32v-40c0-22.4,17.6-40,40-40c19.2,0,35.2,13.6,39.2,32H440
	c4.8,0,8,3.2,8,8v128C448,332.8,444.8,336,440,336z"/>
<path style="fill:#91AAB4;" d="M184,152h-36c-10.4,0-20,6.4-24,16v6.4c-13.6-11.2-33.6-8.8-44.8,5.6c-4.8,5.6-7.2,12.8-7.2,20H40
	v128h144c26.4,0,48-21.6,48-48v-80C232,173.6,210.4,152,184,152z"/>
<g>
	<path style="fill:#193441;" d="M152,336h32c31.2,0,56-24.8,56-56v-80c0-31.2-24.8-56-56-56h-36c-13.6,0-25.6,8-31.2,20l14.4,7.2
		c3.2-6.4,9.6-11.2,16.8-11.2h36c22.4,0,40,17.6,40,40v80c0,22.4-17.6,40-40,40h-32c-13.6,0-24-10.4-24-24v-32h-16v32
		C112,318.4,129.6,336,152,336z"/>
	<path style="fill:#193441;" d="M192,248h16v-48c0-13.6-10.4-24-24-24h-24v16h24c4.8,0,8,3.2,8,8V248z"/>
</g>
<rect y="192" style="fill:#91AAB4;" width="40" height="144"/>
<g>
	<rect y="192" style="fill:#193441;" width="40" height="32"/>
	<rect y="304" style="fill:#193441;" width="40" height="32"/>
	<path style="fill:#193441;" d="M40,336h120v-16H48V208h24c4.8,0,8-3.2,8-8c0-13.6,10.4-24,24-24s24,10.4,24,24v40
		c0,8.8-7.2,16-16,16s-16-7.2-16-16H80c0,17.6,14.4,32,32,32s32-14.4,32-32v-40c0-22.4-17.6-40-40-40c-19.2,0-35.2,13.6-39.2,32H40
		c-4.8,0-8,3.2-8,8v128C32,332.8,35.2,336,40,336z"/>
</g>
<g>
</g>
<g>
</g>
<g>
</g>
<g>
</g>
<g>
</g>
<g>
</g>
<g>
</g>
<g>
</g>
<g>
</g>
<g>
</g>
<g>
</g>
<g>
</g>
<g>
</g>
<g>
</g>
<g>
</g>
</svg>
