<svg height="512pt" viewBox="0 -78 512 511" width="512pt" xmlns="http://www.w3.org/2000/svg"><path d="m213.515625 308.816406c-1.058594 0-2.132813-.109375-3.210937-.347656-46.75-10.199219-89.234376-36.355469-119.632813-73.652344-30.832031-37.839844-47.816406-85.609375-47.816406-134.507812 0-8.285156 6.714843-15 15-15 8.28125 0 14.996093 6.714844 14.996093 15 0 42.015625 14.589844 83.054687 41.078126 115.558594 26.125 32.058593 62.621093 54.535156 102.769531 63.292968 8.089843 1.765625 13.222656 9.757813 11.457031 17.851563-1.53125 7.019531-7.742188 11.804687-14.640625 11.804687zm0 0" fill="#e6e4f9"/><path d="m298.308594 308.820312c-6.898438 0-13.109375-4.789062-14.640625-11.804687-1.765625-8.09375 3.363281-16.085937 11.457031-17.851563 40.148438-8.757812 76.644531-31.238281 102.773438-63.296874 26.488281-32.503907 41.074218-73.542969 41.074218-115.558594 0-8.285156 6.714844-15 15-15s15 6.714844 15 15c0 48.898437-16.984375 96.667968-47.820312 134.507812-30.394532 37.300782-72.882813 63.457032-119.632813 73.65625-1.078125.234375-2.152343.347656-3.210937.347656zm0 0" fill="#c2c0e2"/><path d="m213.5 308.816406h-198.496094c-8.28125 0-14.9960935-6.714844-14.9960935-15s6.7148435-15 14.9960935-15h198.496094c8.285156 0 15 6.714844 15 15s-6.714844 15-15 15zm0 0" fill="#76c8ff"/><path d="m497 308.816406h-198.679688c-8.285156 0-15-6.714844-15-15s6.714844-15 15-15h198.679688c8.285156 0 15 6.714844 15 15s-6.714844 15-15 15zm0 0" fill="#279eff"/><path d="m114.8125 18.097656v79.605469c0 9.707031-7.902344 17.609375-17.609375 17.609375h-79.59375c-9.710937 0-17.609375-7.902344-17.609375-17.609375v-79.605469c0-9.699218 7.898438-17.597656 17.609375-17.597656h79.59375c9.707031 0 17.609375 7.898438 17.609375 17.597656zm0 0" fill="#ffb14a"/><path d="m511.859375 18.097656v79.605469c0 9.707031-7.898437 17.609375-17.609375 17.609375h-79.59375c-9.707031 0-17.609375-7.902344-17.609375-17.609375v-79.605469c0-9.699218 7.902344-17.597656 17.609375-17.597656h79.59375c9.710938 0 17.609375 7.898438 17.609375 17.597656zm0 0" fill="#ff8b00"/><path d="m313.316406 257.6875v79.605469c0 9.699219-7.890625 17.597656-17.601562 17.597656h-79.601563c-9.710937 0-17.597656-7.898437-17.597656-17.597656v-79.605469c0-9.707031 7.886719-17.605469 17.597656-17.605469h79.601563c9.710937 0 17.601562 7.898438 17.601562 17.605469zm0 0" fill="#ffb14a"/><path d="m313.316406 257.6875v79.605469c0 9.699219-7.890625 17.597656-17.601562 17.597656h-39.773438v-114.808594h39.773438c9.710937 0 17.601562 7.898438 17.601562 17.605469zm0 0" fill="#ff8b00"/></svg>