<svg height="400pt" viewBox="0 -59 400 400" width="400pt" xmlns="http://www.w3.org/2000/svg"><path d="m360.101562 11.351562c16.507813 0 29.898438 13.007813 29.898438 29.070313 0 16.058594-13.390625 29.078125-29.898438 29.078125-16.511718 0-29.890624-13.019531-29.890624-29.078125 0-16.0625 13.378906-29.070313 29.890624-29.070313zm0 0" fill="#e2d574"/><g fill="#e48e66"><path d="m265.179688 210.972656h61.230468v61.21875h-61.230468zm0 0"/><path d="m230.199219 40.261719v30.769531h-61.21875v-61.21875h61.21875zm0 0"/><path d="m134 210.972656v61.21875h-61.230469v-61.21875zm0 0"/></g><path d="m39.078125 10.53125c16.050781 0 29.070313 13.378906 29.070313 29.890625 0 16.507813-13.019532 29.898437-29.070313 29.898437-16.046875 0-29.078125-13.390624-29.078125-29.898437 0-16.511719 13.019531-29.890625 29.078125-29.890625zm0 0" fill="#e2d574"/><path d="m360.101562 1.140625c-17.800781.097656-33.449218 11.808594-38.5625 28.859375h-81.539062v-20.1875c.078125-5.339844-4.1875-9.734375-9.527344-9.8125-.089844 0-.183594 0-.273437 0h-61.21875c-5.425781-.0859375-9.894531 4.242188-9.980469 9.667969v.144531 20.1875h-82.09375c-4.378906-17.351562-19.929688-29.550781-37.828125-29.679688-21.546875 0-39.078125 18-39.078125 40s17.53125 39.742188 39.078125 39.742188c18.164063 0 33.472656-12.054688 37.828125-30.054688h53.386719c-24.234375 20.992188-39.292969 50.796876-39.292969 83.703126v67.289062h-18.230469c-5.398437.007812-9.773437 4.390625-9.769531 9.789062v.183594 61.21875c-.09375 5.328125 4.152344 9.71875 9.476562 9.808594h.292969 61.230469c5.433594.089844 9.910156-4.242188 10-9.675781 0-.046875 0-.089844 0-.132813v-61.21875c-.003906-5.511718-4.472656-9.972656-9.980469-9.972656h-23.019531v-67.289062c.085938-33.066407 18.597656-63.328126 48-78.457032v15.777344c-.007812 5.5 4.445312 9.964844 9.945312 9.96875h61.253907c5.417969 0 9.804687-4.390625 9.800781-9.808594 0-.050781 0-.105468 0-.160156v-15.777344c29.410156 15.125 47.925781 45.386719 48 78.457032v67.289062h-22.820312c-5.550782-.027344-10.09375 4.417969-10.179688 9.972656v61.21875c.105469 5.519532 4.660156 9.910156 10.179688 9.808594h61.230468c5.246094.054688 9.539063-4.152344 9.59375-9.398438 0-.136718 0-.269531 0-.40625v-61.222656c.1875-5.316406-3.96875-9.777344-9.285156-9.964844-.101562 0-.203125-.007812-.300781-.007812h-18.417969v-67.289062c0-32.929688-14.871094-62.710938-39.101562-83.710938h52.644531c4.71875 17.382812 20.546875 29.40625 38.558593 29.292969 22 0 39.898438-17.53125 39.898438-39.082031 0-21.546876-17.898438-39.070313-39.898438-39.070313zm-236.101562 260.859375h-41v-41h41zm192 0h-41v-41h41zm-276.921875-201.679688c-10.519531 0-19.078125-8.925781-19.078125-19.898437s8.558594-19.890625 19.078125-19.890625c10.523437 0 19.070313 8.921875 19.070313 19.890625 0 10.964844-8.546876 19.898437-19.070313 19.898437zm139.921875.679688v-41h41v16.625c0 .085938-.070312.171875-.101562.261719-.84375 2.132812-.808594 4.515625.101562 6.625v17.488281zm181.101562-1.5c-10.96875 0-19.890624-8.558594-19.890624-19.078125s8.921874-19.070313 19.890624-19.070313c10.964844 0 19.898438 8.550782 19.898438 19.070313s-8.929688 19.078125-19.898438 19.078125zm0 0" fill="#63316d"/></svg>